<svg width="351" height="62" viewBox="0 0 351 62" fill="none" xmlns="http://www.w3.org/2000/svg">
<g filter="url(#filter0_dd_1_784)">
<rect x="3" y="3" width="345" height="54" rx="10" fill="black"/>
<rect x="64.5" y="3" width="223" height="54" rx="10" fill="black"/>
<g clip-path="url(#clip0_1_784)">
<rect width="24" height="24" transform="translate(79.5 18)" fill="black"/>
<path d="M100.781 36.424C100.433 37.2275 100.021 37.9672 99.5441 38.6472C98.8939 39.5743 98.3615 40.216 97.9512 40.5724C97.3151 41.1573 96.6337 41.4568 95.9039 41.4739C95.3801 41.4739 94.7483 41.3248 94.0129 41.0224C93.2751 40.7214 92.597 40.5724 91.977 40.5724C91.3268 40.5724 90.6294 40.7214 89.8835 41.0224C89.1365 41.3248 88.5347 41.4824 88.0745 41.498C87.3748 41.5278 86.6772 41.2197 85.981 40.5724C85.5367 40.1848 84.9808 39.5204 84.315 38.5791C83.6006 37.5739 83.0133 36.4084 82.5531 35.0795C82.0604 33.6442 81.8133 32.2543 81.8133 30.9087C81.8133 29.3673 82.1464 28.0379 82.8135 26.9238C83.3378 26.029 84.0353 25.3231 84.9083 24.8049C85.7813 24.2867 86.7245 24.0227 87.7403 24.0058C88.2961 24.0058 89.025 24.1777 89.9308 24.5156C90.834 24.8546 91.414 25.0265 91.6682 25.0265C91.8583 25.0265 92.5026 24.8255 93.5948 24.4247C94.6276 24.0531 95.4993 23.8992 96.2134 23.9598C98.1485 24.1159 99.6023 24.8788 100.569 26.253C98.8385 27.3016 97.9824 28.7703 97.9994 30.6544C98.0151 32.122 98.5474 33.3432 99.5938 34.3129C100.068 34.7629 100.598 35.1107 101.187 35.3578C101.059 35.7283 100.924 36.0832 100.781 36.424ZM96.3426 18.9601C96.3426 20.1104 95.9224 21.1844 95.0848 22.1785C94.0739 23.3602 92.8513 24.0431 91.5254 23.9354C91.5085 23.7974 91.4987 23.6521 91.4987 23.4995C91.4987 22.3953 91.9794 21.2135 92.8331 20.2472C93.2593 19.758 93.8014 19.3512 94.4587 19.0267C95.1146 18.7071 95.735 18.5303 96.3185 18.5C96.3355 18.6538 96.3426 18.8076 96.3426 18.9601V18.9601Z" fill="white"/>
</g>
<path d="M119.164 33.1328C119.301 35.6426 121.42 37.2344 124.604 37.2344C127.885 37.2344 129.975 35.5645 129.975 32.9082C129.975 30.8574 128.764 29.6758 125.814 29.0508L124.271 28.7285C122.445 28.3379 121.723 27.6543 121.723 26.6289C121.723 25.3398 122.934 24.5391 124.584 24.5391C126.293 24.5391 127.455 25.4082 127.592 26.8242H129.711C129.643 24.3633 127.602 22.6738 124.613 22.6738C121.615 22.6738 119.496 24.334 119.496 26.7461C119.496 28.7773 120.775 30.0859 123.598 30.6816L125.131 31.0039C127.016 31.4141 127.758 32.0977 127.758 33.1914C127.758 34.4512 126.479 35.3691 124.691 35.3691C122.816 35.3691 121.488 34.5293 121.293 33.1328H119.164ZM132.816 25.0664C133.49 25.0664 134.027 24.5195 134.027 23.8555C134.027 23.1816 133.49 22.6445 132.816 22.6445C132.143 22.6445 131.596 23.1816 131.596 23.8555C131.596 24.5195 132.143 25.0664 132.816 25.0664ZM131.762 37H133.871V26.7266H131.762V37ZM140.424 40.8672C143.354 40.8672 145.248 39.2656 145.248 36.8145V26.7266H143.197V28.4844H143.158C142.533 27.293 141.342 26.5605 139.887 26.5605C137.25 26.5605 135.57 28.5918 135.57 31.8242C135.57 35.0273 137.26 37.0391 139.838 37.0391C141.303 37.0391 142.514 36.3066 143.09 35.1934H143.129V36.8828C143.129 38.2891 142.152 39.2266 140.502 39.2266C139.301 39.2266 138.363 38.6602 138.061 37.8008H135.941C136.205 39.5781 138.002 40.8672 140.424 40.8672ZM140.404 35.291C138.783 35.291 137.729 33.9824 137.729 31.834C137.729 29.6953 138.783 28.3379 140.404 28.3379C142.055 28.3379 143.139 29.7246 143.139 31.834C143.139 33.9531 142.055 35.291 140.404 35.291ZM147.338 37H149.447V31.0137C149.447 29.4219 150.404 28.3672 151.889 28.3672C153.354 28.3672 154.076 29.2168 154.076 30.7598V37H156.195V30.3496C156.195 27.9961 154.896 26.5508 152.631 26.5508C151.049 26.5508 149.955 27.2734 149.398 28.4453H149.35V26.7266H147.338V37ZM164.74 37V22.9082H162.553V37H164.74ZM167.084 37H169.193V31.0137C169.193 29.4219 170.15 28.3672 171.635 28.3672C173.1 28.3672 173.822 29.2168 173.822 30.7598V37H175.941V30.3496C175.941 27.9961 174.643 26.5508 172.377 26.5508C170.795 26.5508 169.701 27.2734 169.145 28.4453H169.096V26.7266H167.084V37ZM195.6 26.7266H193.51L191.635 34.8125H191.586L189.438 26.7266H187.406L185.268 34.8125H185.229L183.354 26.7266H181.244L184.066 37H186.244L188.383 29.3047H188.432L190.59 37H192.787L195.6 26.7266ZM198.012 25.0664C198.686 25.0664 199.223 24.5195 199.223 23.8555C199.223 23.1816 198.686 22.6445 198.012 22.6445C197.338 22.6445 196.791 23.1816 196.791 23.8555C196.791 24.5195 197.338 25.0664 198.012 25.0664ZM196.957 37H199.066V26.7266H196.957V37ZM201.84 24.2949V26.7266H200.346V28.3965H201.84V34.2949C201.84 36.2773 202.65 37.0684 204.73 37.0684C205.199 37.0684 205.668 37.0293 205.902 36.9707V35.3008C205.766 35.3301 205.424 35.3496 205.209 35.3496C204.35 35.3496 203.959 34.9492 203.959 34.0605V28.3965H205.912V26.7266H203.959V24.2949H201.84ZM207.729 37H209.838V31.0625C209.838 29.4414 210.795 28.3672 212.357 28.3672C213.842 28.3672 214.604 29.2754 214.604 30.7891V37H216.723V30.3789C216.723 28.0547 215.375 26.5508 213.119 26.5508C211.557 26.5508 210.434 27.2441 209.867 28.4453H209.818V22.9082H207.729V37ZM232.26 37H234.574L229.486 22.9082H227.123L222.035 37H224.311L225.6 33.1914H230.971L232.26 37ZM228.256 25.252H228.314L230.414 31.4336H226.156L228.256 25.252ZM241.225 26.5605C239.74 26.5605 238.559 27.3125 237.953 28.4941H237.914V26.7266H235.873V40.3984H237.982V35.3105H238.031C238.617 36.4531 239.789 37.1758 241.264 37.1758C243.842 37.1758 245.551 35.1152 245.551 31.8633C245.551 28.6113 243.832 26.5605 241.225 26.5605ZM240.668 35.3887C239.047 35.3887 237.973 34.002 237.973 31.8633C237.973 29.7441 239.057 28.3379 240.668 28.3379C242.338 28.3379 243.383 29.7148 243.383 31.8633C243.383 34.0215 242.338 35.3887 240.668 35.3887ZM252.533 26.5605C251.049 26.5605 249.867 27.3125 249.262 28.4941H249.223V26.7266H247.182V40.3984H249.291V35.3105H249.34C249.926 36.4531 251.098 37.1758 252.572 37.1758C255.15 37.1758 256.859 35.1152 256.859 31.8633C256.859 28.6113 255.141 26.5605 252.533 26.5605ZM251.977 35.3887C250.355 35.3887 249.281 34.002 249.281 31.8633C249.281 29.7441 250.365 28.3379 251.977 28.3379C253.646 28.3379 254.691 29.7148 254.691 31.8633C254.691 34.0215 253.646 35.3887 251.977 35.3887ZM258.568 37H260.678V22.9082H258.568V37ZM269.652 33.9824C269.369 34.8809 268.48 35.4863 267.279 35.4863C265.59 35.4863 264.516 34.3047 264.516 32.5176V32.3906H271.771V31.668C271.771 28.5527 269.994 26.541 267.143 26.541C264.242 26.541 262.387 28.6895 262.387 31.9121C262.387 35.1543 264.213 37.1953 267.23 37.1953C269.584 37.1953 271.361 35.8574 271.654 33.9824H269.652ZM267.143 28.2402C268.617 28.2402 269.613 29.3438 269.662 30.916H264.525C264.633 29.3633 265.668 28.2402 267.143 28.2402Z" fill="white"/>
</g>
<defs>
<filter id="filter0_dd_1_784" x="0" y="0" width="351" height="62" filterUnits="userSpaceOnUse" color-interpolation-filters="sRGB">
<feFlood flood-opacity="0" result="BackgroundImageFix"/>
<feColorMatrix in="SourceAlpha" type="matrix" values="0 0 0 0 0 0 0 0 0 0 0 0 0 0 0 0 0 0 127 0" result="hardAlpha"/>
<feOffset dy="2"/>
<feGaussianBlur stdDeviation="1.5"/>
<feColorMatrix type="matrix" values="0 0 0 0 0 0 0 0 0 0 0 0 0 0 0 0 0 0 0.168 0"/>
<feBlend mode="normal" in2="BackgroundImageFix" result="effect1_dropShadow_1_784"/>
<feColorMatrix in="SourceAlpha" type="matrix" values="0 0 0 0 0 0 0 0 0 0 0 0 0 0 0 0 0 0 127 0" result="hardAlpha"/>
<feOffset/>
<feGaussianBlur stdDeviation="1.5"/>
<feColorMatrix type="matrix" values="0 0 0 0 0 0 0 0 0 0 0 0 0 0 0 0 0 0 0.084 0"/>
<feBlend mode="normal" in2="effect1_dropShadow_1_784" result="effect2_dropShadow_1_784"/>
<feBlend mode="normal" in="SourceGraphic" in2="effect2_dropShadow_1_784" result="shape"/>
</filter>
<clipPath id="clip0_1_784">
<rect width="24" height="24" fill="white" transform="translate(79.5 18)"/>
</clipPath>
</defs>
</svg>
