<svg width="351" height="62" viewBox="0 0 351 62" fill="none" xmlns="http://www.w3.org/2000/svg">
<g filter="url(#filter0_dd_1_781)">
<rect x="3" y="3" width="345" height="54" rx="10" fill="white"/>
<rect x="54.5" y="3" width="242" height="54" rx="10" fill="white"/>
<rect width="24" height="24" transform="translate(69.5 18)" fill="white"/>
<path fill-rule="evenodd" clip-rule="evenodd" d="M92.54 30.2613C92.54 29.4459 92.4668 28.6618 92.3309 27.9091H81.5V32.3575H87.6891C87.4225 33.795 86.6123 35.0129 85.3943 35.8284V38.7138H89.1109C91.2855 36.7118 92.54 33.7636 92.54 30.2613Z" fill="#4285F4"/>
<path fill-rule="evenodd" clip-rule="evenodd" d="M81.4999 41.4998C84.6049 41.4998 87.2081 40.47 89.1108 38.7137L85.3942 35.8282C84.3644 36.5182 83.0472 36.9259 81.4999 36.9259C78.5047 36.9259 75.9694 34.903 75.0651 32.1848H71.2231V35.1644C73.1154 38.9228 77.0044 41.4998 81.4999 41.4998Z" fill="#34A853"/>
<path fill-rule="evenodd" clip-rule="evenodd" d="M75.0652 32.1851C74.8352 31.4951 74.7045 30.7581 74.7045 30.0001C74.7045 29.2422 74.8352 28.5051 75.0652 27.8151V24.8356H71.2232C70.4443 26.3881 70 28.1444 70 30.0001C70 31.8558 70.4443 33.6122 71.2232 35.1647L75.0652 32.1851Z" fill="#FBBC05"/>
<path fill-rule="evenodd" clip-rule="evenodd" d="M81.4999 23.0739C83.1883 23.0739 84.7042 23.6541 85.896 24.7936L89.1944 21.4952C87.2029 19.6395 84.5997 18.5 81.4999 18.5C77.0044 18.5 73.1154 21.077 71.2231 24.8355L75.0651 27.815C75.9694 25.0968 78.5047 23.0739 81.4999 23.0739Z" fill="#EA4335"/>
<path d="M117.426 32.3379C117.426 32.0449 117.38 31.7845 117.289 31.5566C117.204 31.3288 117.051 31.1204 116.83 30.9316C116.609 30.7428 116.296 30.5605 115.893 30.3848C115.495 30.2025 114.988 30.0169 114.369 29.8281C113.692 29.6198 113.067 29.3887 112.494 29.1348C111.928 28.8743 111.433 28.5749 111.01 28.2363C110.587 27.8913 110.258 27.4974 110.023 27.0547C109.789 26.6055 109.672 26.0879 109.672 25.502C109.672 24.9225 109.792 24.3952 110.033 23.9199C110.281 23.4447 110.629 23.0345 111.078 22.6895C111.534 22.3379 112.071 22.0677 112.689 21.8789C113.308 21.6836 113.992 21.5859 114.74 21.5859C115.795 21.5859 116.703 21.7812 117.465 22.1719C118.233 22.5625 118.822 23.0866 119.232 23.7441C119.649 24.4017 119.857 25.1276 119.857 25.9219H117.426C117.426 25.4531 117.325 25.0397 117.123 24.6816C116.928 24.3171 116.628 24.0306 116.225 23.8223C115.827 23.6139 115.323 23.5098 114.711 23.5098C114.132 23.5098 113.65 23.5977 113.266 23.7734C112.882 23.9492 112.595 24.1868 112.406 24.4863C112.217 24.7858 112.123 25.1243 112.123 25.502C112.123 25.7689 112.185 26.013 112.309 26.2344C112.432 26.4492 112.621 26.651 112.875 26.8398C113.129 27.0221 113.448 27.1947 113.832 27.3574C114.216 27.5202 114.669 27.6764 115.189 27.8262C115.977 28.0605 116.664 28.321 117.25 28.6074C117.836 28.8874 118.324 29.2064 118.715 29.5645C119.105 29.9225 119.398 30.3294 119.594 30.7852C119.789 31.2344 119.887 31.7454 119.887 32.3184C119.887 32.9173 119.766 33.4577 119.525 33.9395C119.285 34.4147 118.939 34.8216 118.49 35.1602C118.048 35.4922 117.514 35.7493 116.889 35.9316C116.27 36.1074 115.58 36.1953 114.818 36.1953C114.135 36.1953 113.461 36.1042 112.797 35.9219C112.139 35.7396 111.54 35.4629 111 35.0918C110.46 34.7142 110.03 34.2454 109.711 33.6855C109.392 33.1191 109.232 32.4583 109.232 31.7031H111.684C111.684 32.1654 111.762 32.5592 111.918 32.8848C112.081 33.2103 112.305 33.4772 112.592 33.6855C112.878 33.8874 113.21 34.0371 113.588 34.1348C113.972 34.2324 114.382 34.2812 114.818 34.2812C115.391 34.2812 115.87 34.1999 116.254 34.0371C116.645 33.8743 116.938 33.6465 117.133 33.3535C117.328 33.0605 117.426 32.722 117.426 32.3379ZM124.34 25.4336V36H121.977V25.4336H124.34ZM121.82 22.6602C121.82 22.3021 121.938 22.0059 122.172 21.7715C122.413 21.5306 122.745 21.4102 123.168 21.4102C123.585 21.4102 123.913 21.5306 124.154 21.7715C124.395 22.0059 124.516 22.3021 124.516 22.6602C124.516 23.0117 124.395 23.3047 124.154 23.5391C123.913 23.7734 123.585 23.8906 123.168 23.8906C122.745 23.8906 122.413 23.7734 122.172 23.5391C121.938 23.3047 121.82 23.0117 121.82 22.6602ZM133.686 25.4336H135.824V35.707C135.824 36.6576 135.622 37.4648 135.219 38.1289C134.815 38.793 134.252 39.2975 133.529 39.6426C132.807 39.9941 131.97 40.1699 131.02 40.1699C130.616 40.1699 130.167 40.1113 129.672 39.9941C129.184 39.877 128.708 39.6882 128.246 39.4277C127.79 39.1738 127.41 38.8385 127.104 38.4219L128.207 37.0352C128.585 37.4844 129.001 37.8132 129.457 38.0215C129.913 38.2298 130.391 38.334 130.893 38.334C131.433 38.334 131.892 38.2331 132.27 38.0312C132.654 37.8359 132.95 37.5462 133.158 37.1621C133.367 36.778 133.471 36.3092 133.471 35.7559V27.8262L133.686 25.4336ZM126.508 30.834V30.6289C126.508 29.8281 126.605 29.099 126.801 28.4414C126.996 27.7773 127.276 27.2077 127.641 26.7324C128.005 26.2507 128.448 25.8828 128.969 25.6289C129.49 25.3685 130.079 25.2383 130.736 25.2383C131.42 25.2383 132.003 25.362 132.484 25.6094C132.973 25.8568 133.38 26.2116 133.705 26.6738C134.031 27.1296 134.285 27.6764 134.467 28.3145C134.656 28.946 134.796 29.6491 134.887 30.4238V31.0781C134.802 31.8333 134.659 32.5234 134.457 33.1484C134.255 33.7734 133.988 34.3138 133.656 34.7695C133.324 35.2253 132.914 35.5768 132.426 35.8242C131.944 36.0716 131.374 36.1953 130.717 36.1953C130.072 36.1953 129.49 36.0618 128.969 35.7949C128.454 35.528 128.012 35.1536 127.641 34.6719C127.276 34.1901 126.996 33.6237 126.801 32.9727C126.605 32.3151 126.508 31.6022 126.508 30.834ZM128.861 30.6289V30.834C128.861 31.3158 128.907 31.765 128.998 32.1816C129.096 32.5983 129.242 32.9661 129.438 33.2852C129.639 33.5977 129.893 33.8451 130.199 34.0273C130.512 34.2031 130.88 34.291 131.303 34.291C131.856 34.291 132.309 34.1738 132.66 33.9395C133.018 33.7051 133.292 33.3893 133.48 32.9922C133.676 32.5885 133.812 32.1393 133.891 31.6445V29.877C133.852 29.4928 133.77 29.1348 133.646 28.8027C133.529 28.4707 133.37 28.181 133.168 27.9336C132.966 27.6797 132.712 27.4844 132.406 27.3477C132.1 27.2044 131.739 27.1328 131.322 27.1328C130.899 27.1328 130.531 27.224 130.219 27.4062C129.906 27.5885 129.649 27.8392 129.447 28.1582C129.252 28.4772 129.105 28.8483 129.008 29.2715C128.91 29.6947 128.861 30.1471 128.861 30.6289ZM140.6 27.6895V36H138.246V25.4336H140.463L140.6 27.6895ZM140.18 30.3262L139.418 30.3164C139.424 29.5677 139.529 28.8809 139.73 28.2559C139.939 27.6309 140.225 27.0938 140.59 26.6445C140.961 26.1953 141.404 25.8503 141.918 25.6094C142.432 25.362 143.005 25.2383 143.637 25.2383C144.145 25.2383 144.604 25.3099 145.014 25.4531C145.43 25.5898 145.785 25.8145 146.078 26.127C146.378 26.4395 146.605 26.8464 146.762 27.3477C146.918 27.8424 146.996 28.4512 146.996 29.1738V36H144.633V29.1641C144.633 28.6562 144.558 28.2559 144.408 27.9629C144.265 27.6634 144.053 27.4518 143.773 27.3281C143.5 27.1979 143.158 27.1328 142.748 27.1328C142.344 27.1328 141.983 27.2174 141.664 27.3867C141.345 27.556 141.075 27.7871 140.854 28.0801C140.639 28.373 140.473 28.7116 140.355 29.0957C140.238 29.4798 140.18 29.89 140.18 30.3262ZM157.23 21.7812V36H154.779V21.7812H157.23ZM162.377 27.6895V36H160.023V25.4336H162.24L162.377 27.6895ZM161.957 30.3262L161.195 30.3164C161.202 29.5677 161.306 28.8809 161.508 28.2559C161.716 27.6309 162.003 27.0938 162.367 26.6445C162.738 26.1953 163.181 25.8503 163.695 25.6094C164.21 25.362 164.783 25.2383 165.414 25.2383C165.922 25.2383 166.381 25.3099 166.791 25.4531C167.208 25.5898 167.562 25.8145 167.855 26.127C168.155 26.4395 168.383 26.8464 168.539 27.3477C168.695 27.8424 168.773 28.4512 168.773 29.1738V36H166.41V29.1641C166.41 28.6562 166.335 28.2559 166.186 27.9629C166.042 27.6634 165.831 27.4518 165.551 27.3281C165.277 27.1979 164.936 27.1328 164.525 27.1328C164.122 27.1328 163.76 27.2174 163.441 27.3867C163.122 27.556 162.852 27.7871 162.631 28.0801C162.416 28.373 162.25 28.7116 162.133 29.0957C162.016 29.4798 161.957 29.89 161.957 30.3262ZM179.027 33.6562L181.469 25.4336H182.973L182.562 27.8945L180.102 36H178.754L179.027 33.6562ZM177.592 25.4336L179.496 33.6953L179.652 36H178.148L175.287 25.4336H177.592ZM185.258 33.5977L187.104 25.4336H189.398L186.547 36H185.043L185.258 33.5977ZM183.227 25.4336L185.639 33.5586L185.941 36H184.594L182.104 27.8848L181.693 25.4336H183.227ZM193.52 25.4336V36H191.156V25.4336H193.52ZM191 22.6602C191 22.3021 191.117 22.0059 191.352 21.7715C191.592 21.5306 191.924 21.4102 192.348 21.4102C192.764 21.4102 193.093 21.5306 193.334 21.7715C193.575 22.0059 193.695 22.3021 193.695 22.6602C193.695 23.0117 193.575 23.3047 193.334 23.5391C193.093 23.7734 192.764 23.8906 192.348 23.8906C191.924 23.8906 191.592 23.7734 191.352 23.5391C191.117 23.3047 191 23.0117 191 22.6602ZM200.941 25.4336V27.1523H194.984V25.4336H200.941ZM196.703 22.8457H199.057V33.0801C199.057 33.4056 199.102 33.6562 199.193 33.832C199.291 34.0013 199.424 34.1152 199.594 34.1738C199.763 34.2324 199.962 34.2617 200.189 34.2617C200.352 34.2617 200.508 34.252 200.658 34.2324C200.808 34.2129 200.928 34.1934 201.02 34.1738L201.029 35.9707C200.834 36.0293 200.606 36.0814 200.346 36.127C200.092 36.1725 199.799 36.1953 199.467 36.1953C198.926 36.1953 198.448 36.1009 198.031 35.9121C197.615 35.7168 197.289 35.401 197.055 34.9648C196.82 34.5286 196.703 33.9492 196.703 33.2266V22.8457ZM205.082 21V36H202.738V21H205.082ZM204.672 30.3262L203.91 30.3164C203.917 29.5872 204.018 28.9134 204.213 28.2949C204.415 27.6764 204.695 27.1393 205.053 26.6836C205.417 26.2214 205.854 25.8665 206.361 25.6191C206.869 25.3652 207.432 25.2383 208.051 25.2383C208.572 25.2383 209.04 25.3099 209.457 25.4531C209.88 25.5964 210.245 25.8275 210.551 26.1465C210.857 26.459 211.088 26.8691 211.244 27.377C211.407 27.8783 211.488 28.4902 211.488 29.2129V36H209.125V29.1934C209.125 28.6855 209.05 28.2819 208.9 27.9824C208.757 27.6829 208.546 27.4681 208.266 27.3379C207.986 27.2012 207.644 27.1328 207.24 27.1328C206.817 27.1328 206.443 27.2174 206.117 27.3867C205.798 27.556 205.531 27.7871 205.316 28.0801C205.102 28.373 204.939 28.7116 204.828 29.0957C204.724 29.4798 204.672 29.89 204.672 30.3262ZM230.004 28.7344V34.1641C229.802 34.431 229.486 34.724 229.057 35.043C228.633 35.3555 228.07 35.6257 227.367 35.8535C226.664 36.0814 225.788 36.1953 224.74 36.1953C223.848 36.1953 223.031 36.0456 222.289 35.7461C221.547 35.4401 220.906 34.9941 220.365 34.4082C219.831 33.8223 219.418 33.1094 219.125 32.2695C218.832 31.4232 218.686 30.4596 218.686 29.3789V28.3926C218.686 27.3184 218.819 26.3613 219.086 25.5215C219.359 24.6751 219.75 23.959 220.258 23.373C220.766 22.7871 221.378 22.3444 222.094 22.0449C222.816 21.7389 223.633 21.5859 224.545 21.5859C225.71 21.5859 226.674 21.7812 227.436 22.1719C228.204 22.556 228.796 23.0898 229.213 23.7734C229.63 24.457 229.893 25.2383 230.004 26.1172H227.602C227.523 25.6224 227.37 25.1797 227.143 24.7891C226.921 24.3984 226.602 24.0924 226.186 23.8711C225.775 23.6432 225.242 23.5293 224.584 23.5293C224.018 23.5293 223.52 23.6367 223.09 23.8516C222.66 24.0664 222.302 24.3822 222.016 24.7988C221.736 25.2155 221.524 25.7233 221.381 26.3223C221.238 26.9212 221.166 27.6048 221.166 28.373V29.3789C221.166 30.1602 221.247 30.8535 221.41 31.459C221.579 32.0645 221.82 32.5755 222.133 32.9922C222.452 33.4089 222.839 33.7246 223.295 33.9395C223.751 34.1478 224.265 34.252 224.838 34.252C225.398 34.252 225.857 34.2064 226.215 34.1152C226.573 34.0176 226.856 33.9036 227.064 33.7734C227.279 33.6367 227.445 33.5065 227.562 33.3828V30.5605H224.604V28.7344H230.004ZM232.035 30.834V30.6094C232.035 29.8477 232.146 29.1413 232.367 28.4902C232.589 27.8327 232.908 27.263 233.324 26.7812C233.747 26.293 234.262 25.9154 234.867 25.6484C235.479 25.375 236.169 25.2383 236.938 25.2383C237.712 25.2383 238.402 25.375 239.008 25.6484C239.62 25.9154 240.137 26.293 240.561 26.7812C240.984 27.263 241.306 27.8327 241.527 28.4902C241.749 29.1413 241.859 29.8477 241.859 30.6094V30.834C241.859 31.5957 241.749 32.3021 241.527 32.9531C241.306 33.6042 240.984 34.1738 240.561 34.6621C240.137 35.1439 239.623 35.5215 239.018 35.7949C238.412 36.0618 237.725 36.1953 236.957 36.1953C236.182 36.1953 235.489 36.0618 234.877 35.7949C234.271 35.5215 233.757 35.1439 233.334 34.6621C232.911 34.1738 232.589 33.6042 232.367 32.9531C232.146 32.3021 232.035 31.5957 232.035 30.834ZM234.389 30.6094V30.834C234.389 31.3092 234.438 31.7585 234.535 32.1816C234.633 32.6048 234.786 32.9759 234.994 33.2949C235.202 33.6139 235.469 33.8646 235.795 34.0469C236.12 34.2292 236.508 34.3203 236.957 34.3203C237.393 34.3203 237.771 34.2292 238.09 34.0469C238.415 33.8646 238.682 33.6139 238.891 33.2949C239.099 32.9759 239.252 32.6048 239.35 32.1816C239.454 31.7585 239.506 31.3092 239.506 30.834V30.6094C239.506 30.1406 239.454 29.6979 239.35 29.2812C239.252 28.8581 239.096 28.4837 238.881 28.1582C238.673 27.8327 238.406 27.5788 238.08 27.3965C237.761 27.2077 237.38 27.1133 236.938 27.1133C236.495 27.1133 236.111 27.2077 235.785 27.3965C235.466 27.5788 235.202 27.8327 234.994 28.1582C234.786 28.4837 234.633 28.8581 234.535 29.2812C234.438 29.6979 234.389 30.1406 234.389 30.6094ZM243.383 30.834V30.6094C243.383 29.8477 243.493 29.1413 243.715 28.4902C243.936 27.8327 244.255 27.263 244.672 26.7812C245.095 26.293 245.609 25.9154 246.215 25.6484C246.827 25.375 247.517 25.2383 248.285 25.2383C249.06 25.2383 249.75 25.375 250.355 25.6484C250.967 25.9154 251.485 26.293 251.908 26.7812C252.331 27.263 252.654 27.8327 252.875 28.4902C253.096 29.1413 253.207 29.8477 253.207 30.6094V30.834C253.207 31.5957 253.096 32.3021 252.875 32.9531C252.654 33.6042 252.331 34.1738 251.908 34.6621C251.485 35.1439 250.971 35.5215 250.365 35.7949C249.76 36.0618 249.073 36.1953 248.305 36.1953C247.53 36.1953 246.837 36.0618 246.225 35.7949C245.619 35.5215 245.105 35.1439 244.682 34.6621C244.258 34.1738 243.936 33.6042 243.715 32.9531C243.493 32.3021 243.383 31.5957 243.383 30.834ZM245.736 30.6094V30.834C245.736 31.3092 245.785 31.7585 245.883 32.1816C245.98 32.6048 246.133 32.9759 246.342 33.2949C246.55 33.6139 246.817 33.8646 247.143 34.0469C247.468 34.2292 247.855 34.3203 248.305 34.3203C248.741 34.3203 249.118 34.2292 249.438 34.0469C249.763 33.8646 250.03 33.6139 250.238 33.2949C250.447 32.9759 250.6 32.6048 250.697 32.1816C250.801 31.7585 250.854 31.3092 250.854 30.834V30.6094C250.854 30.1406 250.801 29.6979 250.697 29.2812C250.6 28.8581 250.443 28.4837 250.229 28.1582C250.02 27.8327 249.753 27.5788 249.428 27.3965C249.109 27.2077 248.728 27.1133 248.285 27.1133C247.842 27.1133 247.458 27.2077 247.133 27.3965C246.814 27.5788 246.55 27.8327 246.342 28.1582C246.133 28.4837 245.98 28.8581 245.883 29.2812C245.785 29.6979 245.736 30.1406 245.736 30.6094ZM261.947 25.4336H264.086V35.707C264.086 36.6576 263.884 37.4648 263.48 38.1289C263.077 38.793 262.514 39.2975 261.791 39.6426C261.068 39.9941 260.232 40.1699 259.281 40.1699C258.878 40.1699 258.428 40.1113 257.934 39.9941C257.445 39.877 256.97 39.6882 256.508 39.4277C256.052 39.1738 255.671 38.8385 255.365 38.4219L256.469 37.0352C256.846 37.4844 257.263 37.8132 257.719 38.0215C258.174 38.2298 258.653 38.334 259.154 38.334C259.695 38.334 260.154 38.2331 260.531 38.0312C260.915 37.8359 261.212 37.5462 261.42 37.1621C261.628 36.778 261.732 36.3092 261.732 35.7559V27.8262L261.947 25.4336ZM254.77 30.834V30.6289C254.77 29.8281 254.867 29.099 255.062 28.4414C255.258 27.7773 255.538 27.2077 255.902 26.7324C256.267 26.2507 256.71 25.8828 257.23 25.6289C257.751 25.3685 258.34 25.2383 258.998 25.2383C259.682 25.2383 260.264 25.362 260.746 25.6094C261.234 25.8568 261.641 26.2116 261.967 26.6738C262.292 27.1296 262.546 27.6764 262.729 28.3145C262.917 28.946 263.057 29.6491 263.148 30.4238V31.0781C263.064 31.8333 262.921 32.5234 262.719 33.1484C262.517 33.7734 262.25 34.3138 261.918 34.7695C261.586 35.2253 261.176 35.5768 260.688 35.8242C260.206 36.0716 259.636 36.1953 258.979 36.1953C258.334 36.1953 257.751 36.0618 257.23 35.7949C256.716 35.528 256.273 35.1536 255.902 34.6719C255.538 34.1901 255.258 33.6237 255.062 32.9727C254.867 32.3151 254.77 31.6022 254.77 30.834ZM257.123 30.6289V30.834C257.123 31.3158 257.169 31.765 257.26 32.1816C257.357 32.5983 257.504 32.9661 257.699 33.2852C257.901 33.5977 258.155 33.8451 258.461 34.0273C258.773 34.2031 259.141 34.291 259.564 34.291C260.118 34.291 260.57 34.1738 260.922 33.9395C261.28 33.7051 261.553 33.3893 261.742 32.9922C261.938 32.5885 262.074 32.1393 262.152 31.6445V29.877C262.113 29.4928 262.032 29.1348 261.908 28.8027C261.791 28.4707 261.632 28.181 261.43 27.9336C261.228 27.6797 260.974 27.4844 260.668 27.3477C260.362 27.2044 260.001 27.1328 259.584 27.1328C259.161 27.1328 258.793 27.224 258.48 27.4062C258.168 27.5885 257.911 27.8392 257.709 28.1582C257.514 28.4772 257.367 28.8483 257.27 29.2715C257.172 29.6947 257.123 30.1471 257.123 30.6289ZM269.047 21V36H266.684V21H269.047ZM276.283 36.1953C275.502 36.1953 274.796 36.0684 274.164 35.8145C273.539 35.554 273.005 35.1927 272.562 34.7305C272.126 34.2682 271.791 33.7246 271.557 33.0996C271.322 32.4746 271.205 31.8008 271.205 31.0781V30.6875C271.205 29.8607 271.326 29.112 271.566 28.4414C271.807 27.7708 272.143 27.1979 272.572 26.7227C273.002 26.2409 273.51 25.873 274.096 25.6191C274.682 25.3652 275.316 25.2383 276 25.2383C276.755 25.2383 277.416 25.3652 277.982 25.6191C278.549 25.873 279.018 26.2311 279.389 26.6934C279.766 27.1491 280.046 27.6927 280.229 28.3242C280.417 28.9557 280.512 29.6523 280.512 30.4141V31.4199H272.348V29.7305H278.188V29.5449C278.174 29.1217 278.09 28.7246 277.934 28.3535C277.784 27.9824 277.553 27.6829 277.24 27.4551C276.928 27.2272 276.511 27.1133 275.99 27.1133C275.6 27.1133 275.251 27.1979 274.945 27.3672C274.646 27.5299 274.395 27.7676 274.193 28.0801C273.992 28.3926 273.835 28.7702 273.725 29.2129C273.62 29.6491 273.568 30.1406 273.568 30.6875V31.0781C273.568 31.5404 273.63 31.9701 273.754 32.3672C273.884 32.7578 274.073 33.0996 274.32 33.3926C274.568 33.6855 274.867 33.9167 275.219 34.0859C275.57 34.2487 275.971 34.3301 276.42 34.3301C276.986 34.3301 277.491 34.2161 277.934 33.9883C278.376 33.7604 278.76 33.4382 279.086 33.0215L280.326 34.2227C280.098 34.5547 279.802 34.8737 279.438 35.1797C279.073 35.4792 278.627 35.7233 278.1 35.9121C277.579 36.1009 276.973 36.1953 276.283 36.1953Z" fill="black" fill-opacity="0.54"/>
</g>
<defs>
<filter id="filter0_dd_1_781" x="0" y="0" width="351" height="62" filterUnits="userSpaceOnUse" color-interpolation-filters="sRGB">
<feFlood flood-opacity="0" result="BackgroundImageFix"/>
<feColorMatrix in="SourceAlpha" type="matrix" values="0 0 0 0 0 0 0 0 0 0 0 0 0 0 0 0 0 0 127 0" result="hardAlpha"/>
<feOffset dy="2"/>
<feGaussianBlur stdDeviation="1.5"/>
<feColorMatrix type="matrix" values="0 0 0 0 0 0 0 0 0 0 0 0 0 0 0 0 0 0 0.168 0"/>
<feBlend mode="normal" in2="BackgroundImageFix" result="effect1_dropShadow_1_781"/>
<feColorMatrix in="SourceAlpha" type="matrix" values="0 0 0 0 0 0 0 0 0 0 0 0 0 0 0 0 0 0 127 0" result="hardAlpha"/>
<feOffset/>
<feGaussianBlur stdDeviation="1.5"/>
<feColorMatrix type="matrix" values="0 0 0 0 0 0 0 0 0 0 0 0 0 0 0 0 0 0 0.084 0"/>
<feBlend mode="normal" in2="effect1_dropShadow_1_781" result="effect2_dropShadow_1_781"/>
<feBlend mode="normal" in="SourceGraphic" in2="effect2_dropShadow_1_781" result="shape"/>
</filter>
</defs>
</svg>
